<svg xmlns="http://www.w3.org/2000/svg" width="1276" height="329" viewBox="0 0 1276 329">
  <path id="Logotype"
    d="M572.125 7.86c14.476 0 21.81 5.816 21.81 5.816L601.205.59h-63.977l-4.362 13.086S550.25 7.86 559.038 7.86v47.981c0 20.387-2.908 30.533-2.908 30.533h18.9s-2.908-16.931-2.908-30.533V7.86ZM608.476.59h18.9s-2.908 9.362-2.908 17.448v18.9h36.351V15.13c0-5.727-2.909-14.54-2.909-14.54h18.9s-2.908 8.635-2.908 15.994v55.25c0 6.147 2.908 13.086 2.908 13.086h-18.9s2.909-7.358 2.909-13.086V47.117H624.47v24.717c0 4.208 2.908 13.086 2.908 13.086h-18.9s2.908-7.116 2.908-13.086v-55.25c-.002-6.212-2.91-15.994-2.91-15.994ZM705.9 47.117V77.65c14.868 0 33.442-5.816 33.442-5.816l-5.82 13.086H689.9s2.908-8.759 2.908-15.994V22.4A92.411 92.411 0 0 0 689.9.59h45.075l-7.27 13.086S719.562 7.86 705.9 7.86v30.533h24.718L724.8 50.025s-5.01-2.908-18.9-2.908ZM83.356 84.974C146.1 63.884 213.542 96.1 233.991 156.928s-13.84 127.239-76.585 148.329S27.22 294.132 6.771 233.3s13.84-127.236 76.585-148.326Zm164.52 37.749H291.5s.923 6.293 15.994 26.171 87.242 110.5 87.242 110.5-1.261-95.122-1.454-107.593a117.638 117.638 0 0 0-4.362-29.079h34.9a163.621 163.621 0 0 0-4.362 37.8V278.3c0 10.791 5.816 29.079 5.816 29.079h-33.449a47.2 47.2 0 0 0-7.27-15.994c-5.286-7.02-87.242-110.5-87.242-110.5v85.784c0 12.245 7.27 40.711 7.27 40.711h-37.805s5.816-26.785 5.816-42.165V145.986s-12.723-14.176-24.718-23.263Zm239.915 98.869v68.336c56.239 0 84.334-13.085 84.334-13.085l-11.633 30.533h-107.6s7.27-23.535 7.27-39.257v-110.5c0-14.025-7.27-34.895-7.27-34.895H563.4l-13.086 27.625s-18.158-10.177-62.523-10.177v63.974H544.5l-16 26.17s-16.233-6.785-40.709-8.724Zm157.035-98.869h55.254c29.577 0 68.339 14.045 68.339 52.343s-34.9 49.434-34.9 49.434 30.911 48.649 49.437 69.79a171.815 171.815 0 0 0 40.713 33.441s-17.654 6.194-42.167-10.177-85.785-93.054-85.785-93.054v52.343c0 8.927 5.816 30.533 5.816 30.533h-39.258s5.816-23.177 5.816-37.8V147.44Zm50.891 94.507v-78.513s41.089 2.413 45.075 36.349-40.131 41.874-45.075 42.164Zm117.777-94.507h39.259s-5.816 20.056-5.816 33.441V259.4c0 20.292 8.724 47.981 8.724 47.981h-42.167s5.816-26.471 5.816-49.435V151.8c0-13.874-5.816-29.077-5.816-29.077Zm56.707 0h43.621s.923 6.293 16 26.171 87.243 110.5 87.243 110.5-1.26-95.122-1.46-107.593a117.528 117.528 0 0 0-4.36-29.079h34.9a163.691 163.691 0 0 0-4.36 37.8V278.3c0 10.791 5.81 29.079 5.81 29.079h-33.44a47.087 47.087 0 0 0-7.27-15.994c-5.29-7.02-87.242-110.5-87.242-110.5v85.784c0 12.245 7.271 40.711 7.271 40.711H889.1s5.816-26.785 5.816-42.165V145.986S882.2 131.81 870.2 122.723Zm386.769 1.454v-37.8S1238 79.1 1185.73 79.1s-117.78 33.326-117.78 123.587 80.77 107.593 129.41 107.593 75.61-14.54 75.61-14.54l-2.91-15.993v-63.971c0-11.225 5.82-21.809 5.82-21.809h-53.8s.8 2.793 4.36 8.724 8.72 19.659 8.72 30.533v40.711s-7.34 8.724-40.71 8.724-64.63-14.364-82.88-47.981-9.82-98.421 30.54-119.225c37-19.077 71.24-11.341 114.86 8.724ZM85.107 110.027c41.626-17.341 91.258 6.736 110.858 53.778s1.744 99.235-39.881 116.576-91.259-6.736-110.858-53.781-1.744-99.232 39.881-116.573Z"
    fill-rule="evenodd" />
</svg>